<?xml version="1.0" encoding="UTF-8" standalone="no"?>
<svg width="96px" height="38px" viewBox="0 0 96 38" version="1.1" xmlns="http://www.w3.org/2000/svg" xmlns:xlink="http://www.w3.org/1999/xlink" xmlns:sketch="http://www.bohemiancoding.com/sketch/ns">
    <!-- Generator: sketchtool 3.5.2 (25235) - http://www.bohemiancoding.com/sketch -->
    <title>logos / elements / logo-commoncode</title>
    <desc>Created with sketchtool.</desc>
    <defs></defs>
    <g id="Style-Inventory" stroke="none" stroke-width="1" fill="none" fill-rule="evenodd" sketch:type="MSPage">
        <g id="Symbols" sketch:type="MSArtboardGroup" transform="translate(-240.000000, -943.000000)" fill="#FFFFFF">
            <g id="logos-/-elements-/-logo-commoncode" sketch:type="MSLayerGroup" transform="translate(240.000000, 943.000000)">
                <g id="Group" sketch:type="MSShapeGroup">
                    <path d="M0,8.43881099 L0,8.38926807 C0,3.79829066 3.46065858,0 8.16915078,0 C10.8811092,0 12.5781629,0.924801204 14.1753899,2.2789744 C14.2918544,2.39457455 14.4083189,2.55971762 14.4083189,2.75788931 C14.4083189,3.08817545 14.1088388,3.35240437 13.7760832,3.35240437 C13.6097054,3.35240437 13.4433276,3.28634714 13.3601386,3.18726129 C12.0124783,1.96520256 10.4485269,1.08994428 8.152513,1.08994428 C4.22599653,1.08994428 1.2644714,4.26069126 1.2644714,8.35623945 L1.2644714,8.40578238 C1.2644714,12.5178449 4.27590988,15.7051062 8.18578856,15.7051062 C10.3986135,15.7051062 11.962565,14.9124194 13.5098787,13.4591604 C13.6097054,13.3600745 13.7428076,13.277503 13.9258232,13.277503 C14.2253033,13.277503 14.5081456,13.5582462 14.5081456,13.8555038 C14.5081456,14.0371611 14.4083189,14.1857899 14.32513,14.2683614 C12.6613518,15.804192 10.8644714,16.7950504 8.13587522,16.7950504 C3.46065858,16.7950504 0,13.0958456 0,8.43881099 L0,8.43881099 Z" id="Shape"></path>
                    <path d="M15.9722704,8.43881099 L15.9722704,8.38926807 C15.9722704,3.96343373 19.2665511,0 24.2079723,0 C29.1660312,0 32.4103986,3.91389081 32.4103986,8.33972515 L32.4103986,8.38926807 C32.4103986,12.8151024 29.1161179,16.7785361 24.1580589,16.7785361 C19.2166378,16.7950504 15.9722704,12.8646453 15.9722704,8.43881099 L15.9722704,8.43881099 Z M31.1459272,8.43881099 L31.1459272,8.38926807 C31.1459272,4.37629141 28.2010399,1.08994428 24.1580589,1.08994428 C20.115078,1.08994428 17.220104,4.3432628 17.220104,8.35623945 L17.220104,8.40578238 C17.220104,12.418759 20.1649913,15.7051062 24.2079723,15.7051062 C28.2509532,15.7051062 31.1459272,12.4517876 31.1459272,8.43881099 L31.1459272,8.43881099 Z" id="Shape"></path>
                    <path d="M65.6360485,8.43881099 L65.6360485,8.38926807 C65.6360485,3.96343373 68.9303293,0 73.8883882,0 C78.8464471,0 82.0908146,3.91389081 82.0908146,8.33972515 L82.0908146,8.38926807 C82.0908146,12.8151024 78.7965338,16.7785361 73.8384749,16.7785361 C68.8970537,16.7950504 65.6360485,12.8646453 65.6360485,8.43881099 L65.6360485,8.43881099 Z M80.8263432,8.43881099 L80.8263432,8.38926807 C80.8263432,4.37629141 77.8814558,1.08994428 73.8384749,1.08994428 C69.7954939,1.08994428 66.9005199,4.3432628 66.9005199,8.35623945 L66.9005199,8.40578238 C66.9005199,12.418759 69.8454073,15.7051062 73.8883882,15.7051062 C77.9313692,15.7051062 80.8263432,12.4517876 80.8263432,8.43881099 L80.8263432,8.43881099 Z" id="Shape"></path>
                    <path d="M83.887695,0.809201054 C83.887695,0.478914909 84.1705373,0.214685994 84.4866551,0.214685994 L84.6696707,0.214685994 C84.9192374,0.214685994 85.1188908,0.346800452 85.2686308,0.561486445 L94.7521664,14.3674473 L94.7521664,0.759658132 C94.7521664,0.429371988 95.0017331,0.181657379 95.3344887,0.181657379 C95.6672444,0.181657379 95.9168111,0.429371988 95.9168111,0.759658132 L95.9168111,16.0684209 C95.9168111,16.3491641 95.7005199,16.5803644 95.4343154,16.5803644 L95.3344887,16.5803644 C95.1015598,16.5803644 94.9185442,16.4152214 94.7355286,16.1840211 L85.0357019,2.13034563 L85.0357019,16.018878 C85.0357019,16.3491641 84.7861352,16.5968788 84.4533795,16.5968788 C84.1206239,16.5968788 83.8710572,16.3491641 83.8710572,16.018878 L83.8710572,0.809201054 L83.887695,0.809201054 Z" id="Shape"></path>
                    <path d="M63.0904679,0.231200301 L62.9740035,0.231200301 C62.7244367,0.231200301 62.5247834,0.363314759 62.3750433,0.578000753 L56.002773,9.89207003 L49.6138648,0.578000753 C49.597227,0.544972138 49.5805893,0.528457831 49.5473137,0.511943524 L49.5473137,0.511943524 L49.5473137,0.511943524 C49.4142114,0.363314759 49.2478336,0.264228916 49.0481802,0.247714608 L49.0481802,0.247714608 L48.9982669,0.247714608 L48.9317158,0.247714608 L48.8818024,0.247714608 L48.8818024,0.247714608 C48.6488735,0.264228916 48.4492201,0.396343373 48.3161179,0.59451506 L41.9438475,9.90858433 L35.5715771,0.578000753 C35.4051993,0.363314759 35.2221837,0.231200301 34.972617,0.231200301 L34.8561525,0.231200301 C34.5233969,0.231200301 34.2571924,0.511943524 34.2571924,0.825715361 L34.2571924,16.0353923 C34.2571924,16.3656785 34.5067591,16.6133931 34.8395147,16.6133931 C35.1722704,16.6133931 35.4218371,16.3656785 35.4218371,16.0353923 L35.4218371,2.42760316 L41.4280763,11.0976145 C41.5611785,11.3123004 41.7275563,11.394872 41.9438475,11.394872 C42.1601386,11.394872 42.3098787,11.2957861 42.4596187,11.0976145 L48.4159445,2.5101747 L48.4159445,15.9693351 C48.4159445,16.3326498 48.6655113,16.6299074 48.9982669,16.6299074 C49.3310225,16.6299074 49.5805893,16.3491641 49.5805893,15.9693351 L49.5805893,2.5101747 L55.5202773,11.0976145 C55.6533795,11.3123004 55.8197574,11.394872 56.0360485,11.394872 C56.2523397,11.394872 56.4020797,11.2957861 56.5518198,11.0976145 L62.5580589,2.42760316 L62.5580589,16.0353923 C62.5580589,16.3656785 62.8076256,16.6133931 63.1403813,16.6133931 C63.4731369,16.6133931 63.7227036,16.3656785 63.7227036,16.0353923 L63.7227036,0.825715361 C63.7060659,0.511943524 63.4232236,0.231200301 63.0904679,0.231200301 L63.0904679,0.231200301 Z" id="Shape"></path>
                </g>
                <g id="Group" transform="translate(0.166378, 21.138313)" sketch:type="MSShapeGroup">
                    <g transform="translate(33.608319, 0.000000)" id="Shape">
                        <path d="M0.0831889081,8.53789683 L0.0831889081,8.48835391 C0.0831889081,3.91389081 3.52720971,0.115600151 8.23570191,0.115600151 C10.9310225,0.115600151 12.644714,1.04040135 14.2253033,2.37806024 C14.3417678,2.49366039 14.4582322,2.65880346 14.4582322,2.85697515 C14.4582322,3.18726129 14.1587522,3.45149021 13.8259965,3.45149021 C13.6596187,3.45149021 13.4932409,3.38543298 13.410052,3.28634714 C12.0623917,2.0642884 10.4984402,1.18903012 8.21906412,1.18903012 C4.30918544,1.18903012 1.34766031,4.35977711 1.34766031,8.42229668 L1.34766031,8.4718396 C1.34766031,12.5673878 4.35909879,15.7546491 8.23570191,15.7546491 C10.4485269,15.7546491 12.0124783,14.9619623 13.5431542,13.5087033 C13.6429809,13.4096175 13.7760832,13.3270459 13.9590988,13.3270459 C14.2585789,13.3270459 14.5414211,13.6077891 14.5414211,13.9050467 C14.5414211,14.0867041 14.4415945,14.2353328 14.3584055,14.3179044 C12.7112652,15.8372206 10.9143847,16.8445934 8.18578856,16.8445934 C3.52720971,16.8611077 0.0831889081,13.1784172 0.0831889081,8.53789683 L0.0831889081,8.53789683 Z"></path>
                        <path d="M16.1220104,8.53789683 L16.1220104,8.48835391 C16.1220104,4.07903388 19.3996534,0.115600151 24.3410745,0.115600151 C29.2824957,0.115600151 32.5102253,4.02949096 32.5102253,8.43881099 L32.5102253,8.48835391 C32.5102253,12.8976739 29.2325823,16.8611077 24.2911612,16.8611077 C19.34974,16.8611077 16.1220104,12.9472169 16.1220104,8.53789683 L16.1220104,8.53789683 Z M31.2623917,8.53789683 L31.2623917,8.48835391 C31.2623917,4.49189156 28.3341421,1.20554443 24.2911612,1.20554443 C20.2481802,1.20554443 17.369844,4.44234864 17.369844,8.43881099 L17.369844,8.48835391 C17.369844,12.4848163 20.2980936,15.7711634 24.3410745,15.7711634 C28.3840555,15.7711634 31.2623917,12.5343592 31.2623917,8.53789683 L31.2623917,8.53789683 Z"></path>
                        <path d="M34.3071057,0.990858433 C34.3071057,0.660572289 34.589948,0.396343373 34.9060659,0.396343373 L39.7310225,0.396343373 C44.8554593,0.396343373 48.3993068,3.8808622 48.3993068,8.43881099 L48.3993068,8.48835391 C48.3993068,13.0463027 44.8554593,16.5803644 39.7310225,16.5803644 L34.9060659,16.5803644 C34.5733102,16.5803644 34.3071057,16.2996212 34.3071057,15.9858494 L34.3071057,0.990858433 L34.3071057,0.990858433 Z M39.7310225,15.4739059 C44.2731369,15.4739059 47.1348354,12.4022447 47.1348354,8.53789683 L47.1348354,8.48835391 C47.1348354,4.65703464 44.2731369,1.50280196 39.7310225,1.50280196 L35.5216638,1.50280196 L35.5216638,15.4739059 L39.7310225,15.4739059 L39.7310225,15.4739059 Z"></path>
                        <path d="M50.1961872,15.9693351 L50.1961872,0.990858433 C50.1961872,0.660572289 50.4790295,0.396343373 50.7951473,0.396343373 L61.3268631,0.396343373 C61.6263432,0.396343373 61.8925477,0.644057982 61.8925477,0.957829819 C61.8925477,1.25508735 61.6429809,1.51931626 61.3268631,1.51931626 L51.4107452,1.51931626 L51.4107452,7.87732454 L60.2786828,7.87732454 C60.5781629,7.87732454 60.8443674,8.12503915 60.8443674,8.43881099 C60.8443674,8.73606852 60.5948007,9.00029744 60.2786828,9.00029744 L51.4107452,9.00029744 L51.4107452,15.4904202 L61.4433276,15.4904202 C61.7428076,15.4904202 62.0090121,15.7381348 62.0090121,16.0519066 C62.0090121,16.3491641 61.7594454,16.6133931 61.4433276,16.6133931 L50.7951473,16.6133931 C50.4790295,16.5803644 50.1961872,16.2996212 50.1961872,15.9693351 L50.1961872,15.9693351 Z"></path>
                    </g>
                    <path d="M0.216291161,15.8372206 L7.93622184,0.528457831 C8.03604853,0.313771837 8.21906412,0.181657379 8.46863085,0.181657379 C8.76811092,0.181657379 9.01767764,0.429371988 9.01767764,0.726629518 C9.01767764,0.825715361 8.98440208,0.957829819 8.95112652,1.02388705 L1.21455806,16.3326498 C1.11473137,16.5473358 0.931715771,16.6794503 0.698786828,16.6794503 C0.382668977,16.6794503 0.133102253,16.4317357 0.133102253,16.1344782 C0.133102253,16.0353923 0.166377816,15.9197922 0.216291161,15.8372206 L0.216291161,15.8372206 Z" id="Shape"></path>
                </g>
            </g>
        </g>
    </g>
</svg>