<?xml version="1.0" encoding="UTF-8" standalone="no"?>
<svg width="239px" height="132px" viewBox="0 0 239 132" version="1.1" xmlns="http://www.w3.org/2000/svg" xmlns:xlink="http://www.w3.org/1999/xlink" xmlns:sketch="http://www.bohemiancoding.com/sketch/ns">
    <!-- Generator: sketchtool 3.5.2 (25235) - http://www.bohemiancoding.com/sketch -->
    <title>logos / elements / melbdjango</title>
    <desc>Created with sketchtool.</desc>
    <defs></defs>
    <g id="Style-Inventory" stroke="none" stroke-width="1" fill="none" fill-rule="evenodd" sketch:type="MSPage">
        <g id="Symbols" sketch:type="MSArtboardGroup" transform="translate(-602.000000, -965.000000)">
            <g id="logos-/-elements-/-melbdjango" sketch:type="MSLayerGroup" transform="translate(593.000000, 943.000000)">
                <g id="Layer_1">
                    <g id="Layer_1_1_"></g>
                    <g id="Layer_2"></g>
                    <g id="Layer_3">
                        <g id="Layer_4"></g>
                    </g>
                    <g id="Layer_6"></g>
                    <g id="Group" transform="translate(9.000000, 22.000000)" fill="#C9F0DD" sketch:type="MSShapeGroup">
                        <g transform="translate(0.270860, 0.539463)" id="Group-2">
                            <g transform="translate(68.000000, 0.000000)">
                                <path d="M22.6686162,37.877826 C22.6686162,34.2673255 22.1942931,31.6297143 21.245647,30.1163308 C20.2970009,28.6029474 18.7015507,27.8462556 16.416176,27.8462556 C15.7478117,27.8462556 14.9932069,27.8462556 14.238602,27.9327347 C13.4839972,28.0192137 12.7293923,28.1273126 12.061028,28.2137916 L12.061028,59.0219549 L0.806635705,59.0219549 L0.806635705,20.4522965 C1.7552818,20.1712395 2.87640901,19.9766617 4.21313759,19.6956047 C5.52830605,19.4145478 6.86503463,19.1334909 8.26644364,18.938913 C9.66785264,18.7443351 11.1986225,18.5497573 12.7078322,18.3767991 C14.2170419,18.2903201 15.7262516,18.1822213 17.1492207,18.1822213 C19.995159,18.1822213 22.3452141,18.571377 24.1347056,19.3280687 C25.9241971,20.0847605 27.4334068,20.949551 28.5760941,21.9872997 C30.1931045,20.8414522 32.0688366,19.9118024 34.16017,19.2415897 C36.2299433,18.571377 38.2134761,18.2903201 39.916727,18.2903201 C43.1291877,18.2903201 45.673284,18.7659549 47.7646174,19.6091257 C49.8343907,20.4522965 51.4514011,21.7927218 52.680329,23.3925843 C53.9092569,25.0140666 54.7501023,26.894986 55.1381848,29.1650612 C55.6125079,31.3486574 55.8065491,33.8997895 55.8065491,36.5590204 L55.8065491,59.1084339 L44.5521568,59.1084339 L44.5521568,37.877826 C44.5521568,34.2673255 44.0778338,31.6297143 43.1291877,30.1163308 C42.1805416,28.6029474 40.5850913,27.8462556 38.2997166,27.8462556 C37.739153,27.8462556 36.8767475,28.0408335 35.7556203,28.3218904 C34.7207336,28.6029474 33.7720875,28.9921031 33.1037232,29.4677379 C33.4918057,30.6135854 33.6642868,31.8459119 33.7720875,33.1647175 C33.8798882,34.4835231 33.9661288,35.8239484 33.9661288,37.3373319 L33.9661288,59.1300537 L22.7117365,59.1300537 L22.7117365,37.8994458 L22.6686162,37.8994458 L22.6686162,37.877826 Z" id="Shape"></path>
                                <path d="M63.1718829,39.3912095 C63.1718829,35.8888077 63.7324465,32.753942 64.7888933,30.0947111 C65.8237799,27.4354801 67.3329896,25.251884 69.0362406,23.4574436 C70.8257321,21.6630032 72.8092648,20.3225779 75.0946395,19.4794071 C77.358454,18.5281375 79.7300693,18.1606015 82.1879251,18.1606015 C87.8582415,18.1606015 92.29963,19.8685628 95.5983312,23.3709646 C98.8970324,26.8733663 100.514043,31.9107712 100.514043,38.6345177 C100.514043,39.3047304 100.514043,40.0614221 100.427802,40.8181139 C100.341562,41.5748056 100.341562,42.3314973 100.233761,42.8936112 L74.706557,42.8936112 C74.9868388,45.2717852 76.0217254,47.0662256 77.9190176,48.3850311 C79.8163098,49.7038367 82.3604062,50.4605285 85.6591074,50.4605285 C87.7288807,50.4605285 89.7124134,50.2659506 91.7175063,49.8984146 C93.701039,49.5092589 95.3180494,49.0552438 96.6332179,48.4715102 L98.1424276,57.6599098 C97.581864,57.9409667 96.7194584,58.2220236 95.6845718,58.6111794 C94.6496851,58.8922363 93.5069978,59.1732932 92.2780699,59.3678711 C91.049142,59.562449 89.7339736,59.7570269 88.3110044,59.929985 C86.8880353,60.1029431 85.4650661,60.1245628 84.0636571,60.1245628 C80.463114,60.1245628 77.358454,59.562449 74.706557,58.5030806 C72.0546599,57.4653319 69.877086,55.9519484 68.0875945,54.1358883 C66.3843435,52.3414479 65.0691751,50.0713727 64.2067695,47.6067197 C63.5384052,44.9907282 63.1718829,42.3314973 63.1718829,39.3912095 L63.1718829,39.3912095 Z M89.6261729,35.0456369 C89.5399323,34.0943673 89.4321316,33.1430977 89.1518498,32.1918281 C88.871568,31.2405585 88.4834855,30.4838668 87.8366814,29.7271751 C87.2761178,29.0569624 86.5215129,28.4083695 85.6591074,28.0192137 C84.818262,27.5435789 83.6755746,27.3490011 82.3604062,27.3490011 C81.1314783,27.3490011 79.9887909,27.5435789 79.1479455,28.0192137 C78.1992994,28.4948485 77.4446946,29.0569624 76.884131,29.7271751 C76.3235674,30.3973878 75.8492443,31.2405585 75.4611618,32.1918281 C75.18088,33.1430977 74.9005982,34.0943673 74.706557,35.0456369 L89.6261729,35.0456369 L89.6261729,35.0456369 Z" id="Shape"></path>
                                <path d="M124.071041,59.7786466 C120.772339,59.6921676 118.120442,59.3894909 116.13691,58.740898 C114.153377,58.092305 112.450126,57.1194157 111.307439,55.995188 C110.078511,54.7628614 109.323906,53.335957 108.849583,51.6279957 C108.37526,49.9200344 108.181219,48.0174952 108.181219,45.9419979 L108.181219,1.9673985 L119.435611,0.17295811 L119.435611,43.5854436 C119.435611,44.6231923 119.521851,45.4879828 119.629652,46.3311536 C119.823693,47.1743244 120.103975,47.8445371 120.470497,48.4066509 C120.944821,48.9687648 121.505384,49.4443996 122.36779,49.7254565 C123.208635,50.0065134 124.265082,50.2875704 125.58025,50.3956692 L124.071041,59.7786466 L124.071041,59.7786466 Z" id="Shape"></path>
                                <path d="M170.06705,39.0236735 C170.06705,42.2450183 169.592727,45.0988271 168.644081,47.6499592 C167.695435,50.2010913 166.380266,52.3846874 164.590775,54.2872266 C162.801283,56.1897658 160.623709,57.5085714 158.079613,58.459841 C155.535516,59.4111106 152.603338,59.9732245 149.283076,59.9732245 C147.967908,59.9732245 146.544939,59.8867454 145.035729,59.7786466 C143.526519,59.6921676 142.10355,59.4975897 140.680581,59.3030118 C139.257612,59.1084339 137.834643,58.827377 136.519474,58.5463201 C135.204306,58.2652632 134.061618,57.9842062 133.026732,57.7031493 L133.026732,1.9673985 L144.281124,0.17295811 L144.281124,20.0847605 C145.510052,19.5226466 146.82522,19.1334909 148.24819,18.7659549 C149.563358,18.484898 151.094128,18.2903201 152.603338,18.2903201 C155.449276,18.2903201 157.885571,18.7659549 160.063145,19.8037035 C162.240719,20.7549731 164.030211,22.1818776 165.539421,23.9763179 C166.96239,25.7707583 168.083517,27.9543545 168.838122,30.5054866 C169.678967,33.0566187 170.06705,35.8888077 170.06705,39.0236735 L170.06705,39.0236735 Z M158.532376,38.7426165 C158.532376,31.4351364 155.880479,27.8462556 150.490444,27.8462556 C149.347757,27.8462556 148.226629,28.0408335 147.083942,28.3218904 C145.941255,28.6029474 145.014169,28.9921031 144.345804,29.4677379 L144.345804,50.0281332 C144.906368,50.1146122 145.574732,50.2227111 146.415578,50.3091901 C147.256423,50.3956692 148.205069,50.3956692 149.261516,50.3956692 C152.387736,50.3956692 154.651551,49.3579205 156.247001,47.1743244 C157.777771,45.0772073 158.532376,42.2450183 158.532376,38.7426165 L158.532376,38.7426165 Z" id="Shape"></path>
                            </g>
                        </g>
                    </g>
                    <g id="django" transform="translate(9.000000, 71.000000)" fill="#092E20" sketch:type="MSShapeGroup">
                        <g id="Layer_1">
                            <g id="Group">
                                <path d="M28.0284485,0 L41.0296751,0 L41.0296751,59.9422745 C34.3602288,61.203549 29.4635286,61.7080588 24.1452906,61.7080588 C8.27335927,61.7075163 0,54.5608366 0,40.8533595 C0,27.6509346 8.78040275,19.074268 22.372,19.074268 C24.4824119,19.074268 26.0863249,19.2418954 28.0284485,19.7464052 L28.0284485,0 L28.0284485,0 Z M28.0284485,30.1729412 C26.5089519,29.6689739 25.2427048,29.5008039 23.6387918,29.5008039 C17.053762,29.5008039 13.254476,33.5374248 13.254476,40.6005621 C13.254476,47.4966144 16.8849291,51.2804379 23.5543753,51.2804379 C24.9889108,51.2804379 26.171286,51.1963529 28.0284485,50.9446405 L28.0284485,30.1729412 L28.0284485,30.1729412 Z" id="Shape"></path>
                                <path d="M61.7122563,19.9986601 L61.7122563,50.0186209 C61.7122563,60.3621569 60.952508,65.3231699 58.6732632,69.6120458 C56.5623066,73.7332941 53.7760183,76.3393856 48.0356979,79.198817 L35.9630526,73.4804967 C41.7039176,70.7897778 44.4896613,68.4359412 46.2624073,64.8186601 C48.1201144,61.1189216 48.7115744,56.8300458 48.7115744,45.5621176 L48.7115744,19.9986601 L61.7122563,19.9986601 L61.7122563,19.9986601 Z M48.7115744,0.0688954248 L61.7122563,0.0688954248 L61.7122563,13.3554052 L48.7115744,13.3554052 L48.7115744,0.0688954248 L48.7115744,0.0688954248 Z" id="Shape"></path>
                                <path d="M69.565167,22.941634 C75.3065767,20.2514575 80.7936476,19.074268 86.787762,19.074268 C93.4572082,19.074268 97.846865,20.8395098 99.7889886,24.2875359 C100.885858,26.2214902 101.223524,28.7440392 101.223524,34.1265621 L101.223524,60.4462418 C95.3976979,61.2870915 88.0534645,61.8762288 82.6508101,61.8762288 C71.76054,61.8762288 66.8632952,58.0907778 66.8632952,49.682281 C66.8632952,40.6000196 73.3639085,36.3957712 89.3202563,35.0498693 L89.3202563,32.1909804 C89.3202563,29.8366013 88.1384256,28.9962941 84.8456384,28.9962941 C80.0338993,28.9962941 74.6307002,30.3416536 69.5646224,32.9488301 L69.5646224,22.941634 L69.565167,22.941634 Z M89.9111716,43.5440784 C81.2996018,44.3849281 78.5138581,45.7308301 78.5138581,49.0942288 C78.5138581,51.6167778 80.1183158,52.7939673 83.6638078,52.7939673 C85.6059314,52.7939673 87.3781327,52.6263399 89.9111716,52.205915 L89.9111716,43.5440784 L89.9111716,43.5440784 Z" id="Shape"></path>
                                <path d="M107.555849,22.0166993 C115.237748,19.9986601 121.569529,19.074268 127.985725,19.074268 C134.655172,19.074268 139.467455,20.5872549 142.338705,23.5307712 C145.040032,26.3050327 145.883652,29.3320915 145.883652,35.8082614 L145.883652,61.2030065 L132.882426,61.2030065 L132.882426,36.3127712 C132.882426,31.3517582 131.194096,29.5008039 126.55119,29.5008039 C124.778444,29.5008039 123.174531,29.6689739 120.556531,30.4257386 L120.556531,61.2030065 L107.555849,61.2030065 L107.555849,22.0166993 L107.555849,22.0166993 Z" id="Shape"></path>
                                <path d="M150.937748,68.2672288 C155.497327,70.6216078 160.055817,71.7141699 164.867556,71.7141699 C173.39362,71.7141699 177.024073,68.2672288 177.024073,60.025817 L177.024073,59.7735621 C174.491579,61.0342941 171.95854,61.5393464 168.582426,61.5393464 C157.185112,61.5393464 149.923661,54.0552418 149.923661,42.198719 C149.923661,27.4816797 160.646188,19.1578105 179.640439,19.1578105 C185.213016,19.1578105 190.362966,19.7458627 196.61033,21.0071373 L192.158586,30.3481634 C188.696966,29.6754837 191.881373,30.2581111 189.265551,30.0058562 L189.265551,31.3517582 L189.43384,36.8167386 L189.517712,43.8809608 C189.602128,45.6462026 189.602128,47.4125294 189.687089,49.1783137 L189.687089,52.7104248 C189.687089,63.8107255 188.758508,69.0239935 185.972764,73.3123268 C181.920229,79.6197843 174.913117,82.7309281 164.951428,82.7309281 C159.885895,82.7309281 155.496783,81.9741634 150.937204,80.2078366 L150.937204,68.2672288 L150.937748,68.2672288 Z M176.771368,29.5848889 L176.349831,29.5848889 L175.420705,29.5848889 C172.888755,29.5008039 169.934178,30.1729412 167.907094,31.4342157 C164.784229,33.2005425 163.179227,36.3963137 163.179227,40.936902 C163.179227,47.4125294 166.388142,51.112268 172.128462,51.112268 C173.901208,51.112268 175.336833,50.7753856 177.024618,50.2714183 L177.024618,49.3459412 L177.024618,45.814915 C177.024618,44.3013856 176.940746,42.6186013 176.940746,40.8533595 L176.856874,34.8833268 L176.771913,30.594451 L176.771913,29.5848889 L176.771368,29.5848889 Z" id="Shape"></path>
                                <path d="M216.793492,18.9055556 C229.794174,18.9055556 237.730412,27.0628824 237.730412,40.2647647 C237.730412,53.8040719 229.457597,62.2971961 216.286993,62.2971961 C203.285222,62.2971961 195.265112,54.1398693 195.265112,41.0220719 C195.265657,27.3981373 203.539561,18.9055556 216.793492,18.9055556 L216.793492,18.9055556 Z M216.539153,51.8690327 C221.520815,51.8690327 224.475936,47.7483268 224.475936,40.6005621 C224.475936,33.5374248 221.605231,29.332634 216.625204,29.332634 C211.474709,29.332634 208.519043,33.4538824 208.519043,40.6005621 C208.519588,47.7488693 211.474709,51.8690327 216.539153,51.8690327 L216.539153,51.8690327 Z" id="Shape"></path>
                            </g>
                        </g>
                    </g>
                </g>
            </g>
        </g>
    </g>
</svg>