<?xml version="1.0" encoding="UTF-8" standalone="no"?>
<svg width="97px" height="30px" viewBox="0 0 97 30" version="1.1" xmlns="http://www.w3.org/2000/svg" xmlns:xlink="http://www.w3.org/1999/xlink" xmlns:sketch="http://www.bohemiancoding.com/sketch/ns">
    <!-- Generator: sketchtool 3.5.2 (25235) - http://www.bohemiancoding.com/sketch -->
    <title>logos / elements / logo-sample</title>
    <desc>Created with sketchtool.</desc>
    <defs>
        <path id="path-1" d="M0.0137588652,0.208153846 L96.7952222,0.208153846 L96.7952222,30 L0.0137588652,30"></path>
    </defs>
    <g id="Style-Inventory" stroke="none" stroke-width="1" fill="none" fill-rule="evenodd" sketch:type="MSPage">
        <g id="Symbols" sketch:type="MSArtboardGroup" transform="translate(-416.000000, -943.000000)">
            <g id="logos-/-elements-/-logo-sample" sketch:type="MSLayerGroup" transform="translate(416.000000, 943.000000)">
                <g id="Sample_Logo_Final">
                    <path d="M8.93844681,1.03892308 L6.79435697,1.03892308 C4.37967612,1.03892308 2.96503546,1.47623077 2.06474704,2.50084615 C1.1846383,3.50261538 0.825531915,5.00123077 0.825531915,7.67353846 L0.825531915,8.77176923 C0.825531915,13.0573846 2.41513948,14.6180769 5.22492908,17.0076923 C7.72674941,19.0677692 8.3101253,19.7480769 8.3101253,21.7179231 L8.3101253,22.6986923 C8.3101253,22.9123846 8.3101253,23.4798462 8.21381324,23.6469231 C8.18514894,23.6963077 8.00559574,23.7140769 7.84713948,23.7140769 L7.4960591,23.7140769 C7.33760284,23.7140769 7.15804965,23.6963077 7.12938534,23.6466923 C7.03284397,23.4796154 7.03284397,22.9121538 7.03284397,22.6986923 L7.03284397,18.6925385 L0.825531915,18.6925385 L0.825531915,23.3656154 C0.825531915,26.0005385 1.1942695,27.5471538 2.05878487,28.5369231 C2.954487,29.5624615 4.35903783,30 6.75537352,30 L8.93844681,30 C11.3347825,30 12.7395626,29.5624615 13.6352648,28.5369231 C14.5000095,27.5471538 14.868747,26.0005385 14.868747,23.3656154 L14.868747,21.6786923 C14.868747,17.2783846 13.232818,15.5884615 10.5386028,13.3287692 C7.95445863,11.1683077 7.34471158,10.5879231 7.34471158,8.73253846 L7.34471158,8.22276923 C7.34471158,7.32484615 7.36351537,7.32484615 7.84713948,7.32484615 L8.15900709,7.32484615 C8.60410638,7.32484615 8.66120567,7.32484615 8.66120567,8.34046154 L8.66120567,11.5617692 L14.868747,11.5617692 L14.868747,7.67353846 C14.868747,2.589 13.4832293,1.03892308 8.93844681,1.03892308 L8.93844681,1.03892308 Z M8.93844681,1.59276923 C13.2268558,1.59276923 14.3183924,2.96561538 14.3183924,7.67353846 L14.3183924,11.0079231 L9.21156028,11.0079231 L9.21156028,8.34046154 C9.21156028,7.16353846 9.05562648,6.771 8.15900709,6.771 L7.84713948,6.771 C6.91153664,6.771 6.79435697,7.16353846 6.79435697,8.22276923 L6.79435697,8.73253846 C6.79435697,10.8902308 7.65222222,11.6356154 10.1861466,13.7540769 C12.9924965,16.1079231 14.3183924,17.6379231 14.3183924,21.6786923 L14.3183924,23.3656154 C14.3183924,28.0733077 13.1878723,29.4461538 8.93844681,29.4461538 L6.75537352,29.4461538 C2.50640662,29.4461538 1.37588652,28.0733077 1.37588652,23.3656154 L1.37588652,19.2463846 L6.48271868,19.2463846 L6.48271868,22.6986923 C6.48271868,23.8758462 6.59989835,24.2679231 7.4960591,24.2679231 L7.84713948,24.2679231 C8.74352955,24.2679231 8.86047991,23.8758462 8.86047991,22.6986923 L8.86047991,21.7179231 C8.86047991,19.5207692 8.15304492,18.7029231 5.58013712,16.5846923 C2.81277069,14.2310769 1.37588652,12.8125385 1.37588652,8.77176923 L1.37588652,7.67353846 C1.37588652,2.96561538 2.50640662,1.59276923 6.79435697,1.59276923 L8.93844681,1.59276923 L8.93844681,1.59276923 Z" id="Fill-1" fill="#16835A" sketch:type="MSShapeGroup"></path>
                    <path d="M63.2293239,7.521 L64.0436194,7.521 C64.2020757,7.521 64.3816288,7.53876923 64.4100638,7.58815385 C64.5063759,7.75546154 64.5063759,8.32292308 64.5063759,8.53661538 L64.5063759,13.1266154 C64.5063759,13.3400769 64.5063759,13.9075385 64.4100638,14.0746154 C64.3816288,14.1242308 64.2020757,14.1417692 64.0436194,14.1417692 L63.2293239,14.1417692 L63.2293239,7.521 L63.2293239,7.521 Z M65.1346974,1.23507692 L56.6711608,1.23507692 L56.6711608,29.8040769 L63.2293239,29.8040769 L63.2293239,20.4281538 L65.1346974,20.4281538 C69.6794799,20.4281538 71.0649976,18.8688462 71.0649976,13.7540769 L71.0649976,7.86946154 C71.0649976,2.78515385 69.6794799,1.23507692 65.1346974,1.23507692 L65.1346974,1.23507692 Z M62.6789693,14.6956154 L64.0436194,14.6956154 C64.9397801,14.6956154 65.0567305,14.3033077 65.0567305,13.1266154 L65.0567305,8.53661538 C65.0567305,7.35969231 64.9397801,6.96715385 64.0436194,6.96715385 L62.6789693,6.96715385 L62.6789693,14.6956154 L62.6789693,14.6956154 Z M65.1346974,1.78892308 C69.4226478,1.78892308 70.514643,3.162 70.514643,7.86946154 L70.514643,13.7540769 C70.514643,18.4617692 69.4226478,19.8743077 65.1346974,19.8743077 L62.6789693,19.8743077 L62.6789693,29.2502308 L57.2215154,29.2502308 L57.2215154,1.78892308 L65.1346974,1.78892308 L65.1346974,1.78892308 Z" id="Fill-2" fill="#16835A" sketch:type="MSShapeGroup"></path>
                    <path d="M79.6436501,1.23507692 L73.085487,1.23507692 L73.085487,29.8040769 L83.6589456,29.8040769 L83.6589456,23.5179231 L79.6436501,23.5179231 L79.6436501,1.23507692 L79.6436501,1.23507692 Z M79.0932955,1.78892308 L79.0932955,24.0717692 L83.108591,24.0717692 L83.108591,29.2502308 L73.6358416,29.2502308 L73.6358416,1.78892308 L79.0932955,1.78892308 L79.0932955,1.78892308 Z" id="Fill-3" fill="#16835A" sketch:type="MSShapeGroup"></path>
                    <path d="M96.7952222,1.23507692 L85.4806194,1.23507692 L85.4806194,29.8040769 L96.7952222,29.8040769 L96.7952222,23.5179231 L92.0392411,23.5179231 L92.0392411,18.1130769 L95.7811939,18.1130769 L95.7811939,11.8273846 L92.0392411,11.8273846 L92.0392411,7.521 L96.7952222,7.521 L96.7952222,1.23507692 L96.7952222,1.23507692 Z M96.2448676,1.78892308 L96.2448676,6.96715385 L91.4888865,6.96715385 L91.4888865,12.3812308 L95.2308392,12.3812308 L95.2308392,17.5592308 L91.4888865,17.5592308 L91.4888865,24.0717692 L96.2448676,24.0717692 L96.2448676,29.2502308 L86.030974,29.2502308 L86.030974,1.78892308 L96.2448676,1.78892308 L96.2448676,1.78892308 Z" id="Fill-4" fill="#16835A" sketch:type="MSShapeGroup"></path>
                    <path d="M23.6251182,20.2617692 C23.7727967,18.4412308 23.9129078,16.7072308 24.0424704,15.0343846 C24.1720331,16.707 24.3119149,18.4407692 24.4598227,20.2617692 L23.6251182,20.2617692 L23.6251182,20.2617692 Z M28.3797234,1.23507692 L19.7049882,1.23507692 L16.1769858,29.8040769 L22.6633735,29.8040769 L23.053208,26.2340769 L25.0315035,26.2340769 L25.4211087,29.8040769 L31.9077258,29.8040769 L28.3797234,1.23507692 L28.3797234,1.23507692 Z M23.0279835,20.8156154 L25.0569574,20.8156154 C24.613234,15.3484615 24.2756832,11.1565385 24.0424704,6.97707692 C23.8087991,11.1565385 23.4714775,15.3484615 23.0279835,20.8156154 L23.0279835,20.8156154 Z M27.8935768,1.78892308 L31.2849078,29.2502308 L25.9143641,29.2502308 L25.5245296,25.6802308 L22.560182,25.6802308 L22.1703475,29.2502308 L16.8000331,29.2502308 L20.1913641,1.78892308 L27.8935768,1.78892308 L27.8935768,1.78892308 Z" id="Fill-5" fill="#16835A" sketch:type="MSShapeGroup"></path>
                    <path d="M54.2319433,1.23507692 L45.1359574,1.23507692 L43.9531537,10.7203846 L42.7708085,1.23507692 L33.9041371,1.23507692 L33.9041371,29.8040769 L34.4544917,29.8040769 L39.4448322,29.8038462 L39.9951868,29.8036154 L39.9951868,20.4537692 L41.3823097,29.8040769 L46.5244563,29.8040769 L47.9115792,20.4537692 L47.9115792,29.8038462 L47.9168534,29.8038462 L48.467208,29.8040769 L54.2319433,29.8040769 L54.2319433,1.23507692 L54.2319433,1.23507692 Z M53.6815887,1.78892308 L53.6815887,29.2502308 L48.467208,29.2502308 L48.467208,29.25 L48.4619338,29.25 L48.4619338,12.9934615 L46.0500047,29.2502308 L41.8565319,29.2502308 L39.4448322,12.9934615 L39.4448322,29.25 L34.4544917,29.2502308 L34.4544917,1.78892308 L42.2851206,1.78892308 L43.6105579,12.4204615 C43.7779574,13.6684615 43.8591348,14.0111538 43.9531537,15.1047692 C44.0474019,14.0111538 44.1285792,13.6684615 44.2959787,12.4204615 L45.6214161,1.78892308 L53.6815887,1.78892308 L53.6815887,1.78892308 Z" id="Fill-6" fill="#16835A" sketch:type="MSShapeGroup"></path>
                    <g id="Group-10">
                        <mask id="mask-2" sketch:name="Clip 8" fill="white">
                            <use xlink:href="#path-1"></use>
                        </mask>
                        <g id="Clip-8"></g>
                        <path d="M8.17253664,21.0256154 C8.17253664,18.8284615 7.35388416,18.1225385 4.78120567,16.0040769 C2.01360993,13.6504615 0.687943262,12.1202308 0.687943262,8.07946154 L0.687943262,6.98123077 C0.687943262,2.27330769 1.81846336,0.900461538 6.10641371,0.900461538 L8.25050355,0.900461538 C12.5389125,0.900461538 13.6304492,2.27330769 13.6304492,6.98123077 L13.6304492,10.3156154 L8.52361702,10.3156154 L8.52361702,7.64815385 C8.52361702,6.47123077 8.36768322,6.07869231 7.47106383,6.07869231 L7.15919622,6.07869231 C6.22359338,6.07869231 6.10641371,6.47123077 6.10641371,7.53046154 L6.10641371,8.04023077 C6.10641371,10.1979231 6.96427896,10.9435385 9.49820331,13.0617692 C12.3045532,15.4156154 13.6304492,16.9456154 13.6304492,20.9863846 L13.6304492,22.6733077 C13.6304492,27.381 12.4999291,28.7538462 8.25050355,28.7538462 L6.06743026,28.7538462 C1.81846336,28.7538462 0.687943262,27.381 0.687943262,22.6733077 L0.687943262,18.5540769 L5.79477541,18.5540769 L5.79477541,22.0063846 C5.79477541,23.1833077 5.91195508,23.5756154 6.80811584,23.5756154 L7.15919622,23.5756154 C8.05558629,23.5756154 8.17253664,23.1833077 8.17253664,22.0063846 L8.17253664,21.0256154" id="Fill-7" fill="#38C992" sketch:type="MSShapeGroup" mask="url(#mask-2)"></path>
                        <path d="M6.54876123,22.86 C6.51619858,22.7762308 6.48271868,22.5565385 6.48271868,22.0063846 L6.48271868,18.4183846 C7.2717896,19.2493846 7.48459338,19.881 7.48459338,21.0256154 L7.48459338,22.0063846 C7.48459338,22.5565385 7.45088416,22.7762308 7.41855083,22.86 C7.38392435,22.8692308 7.30710402,22.8833077 7.15919622,22.8833077 L6.80811584,22.8833077 C6.65997872,22.8833077 6.58338771,22.8692308 6.54876123,22.86 L6.54876123,22.86 Z M6.85214421,6.80123077 C6.88814657,6.79015385 6.97643262,6.771 7.15919622,6.771 L7.47106383,6.771 C7.64763593,6.771 7.72766667,6.79084615 7.75656028,6.80076923 C7.7854539,6.86007692 7.83567376,7.04953846 7.83567376,7.64815385 L7.83567376,10.6578462 C7.03078014,9.80884615 6.79435697,9.16523077 6.79435697,8.04023077 L6.79435697,7.53046154 C6.79435697,7.04723077 6.82691962,6.86769231 6.85214421,6.80123077 L6.85214421,6.80123077 Z M8.25050355,0.208153846 L6.10641371,0.208153846 C3.64816312,0.208153846 2.20279433,0.659307692 1.27384161,1.71669231 C0.368966903,2.74661538 0,4.27176923 0,6.98123077 L0,8.07946154 C0,12.5236154 1.63845154,14.2377692 4.33702364,16.5327692 C4.97658156,17.0596154 5.49230969,17.4879231 5.90576359,17.8617692 L0,17.8617692 L0,22.6733077 C0,25.3449231 0.379056738,26.9187692 1.26765012,27.936 C2.19201655,28.9945385 3.62752482,29.4461538 6.06743026,29.4461538 L8.25050355,29.4461538 C10.690409,29.4461538 12.1261466,28.9945385 13.0507423,27.936 C13.9393357,26.9187692 14.3183924,25.3449231 14.3183924,22.6733077 L14.3183924,20.9863846 C14.3183924,16.5256154 12.6638889,14.8156154 9.93871631,12.5300769 C9.20284634,11.9148462 8.62956028,11.4297692 8.18629551,11.0079231 L14.3183924,11.0079231 L14.3183924,6.98123077 C14.3183924,4.26807692 13.9558463,2.74384615 13.066565,1.71992308 C12.1465556,0.660230769 10.7062317,0.208153846 8.25050355,0.208153846 L8.25050355,0.208153846 Z M8.25050355,0.900461538 C12.5389125,0.900461538 13.6304492,2.27330769 13.6304492,6.98123077 L13.6304492,10.3156154 L8.52361702,10.3156154 L8.52361702,7.64815385 C8.52361702,6.47123077 8.36768322,6.07869231 7.47106383,6.07869231 L7.15919622,6.07869231 C6.22359338,6.07869231 6.10641371,6.47123077 6.10641371,7.53046154 L6.10641371,8.04023077 C6.10641371,10.1979231 6.96427896,10.9435385 9.49820331,13.0617692 C12.3045532,15.4156154 13.6304492,16.9456154 13.6304492,20.9863846 L13.6304492,22.6733077 C13.6304492,27.381 12.4999291,28.7538462 8.25050355,28.7538462 L6.06743026,28.7538462 C1.81846336,28.7538462 0.687943262,27.381 0.687943262,22.6733077 L0.687943262,18.5540769 L5.79477541,18.5540769 L5.79477541,22.0063846 C5.79477541,23.1833077 5.91195508,23.5756154 6.80811584,23.5756154 L7.15919622,23.5756154 C8.05558629,23.5756154 8.17253664,23.1833077 8.17253664,22.0063846 L8.17253664,21.0256154 C8.17253664,18.8284615 7.35388416,18.1225385 4.78120567,16.0040769 C2.01360993,13.6504615 0.687943262,12.1202308 0.687943262,8.07946154 L0.687943262,6.98123077 C0.687943262,2.27330769 1.81846336,0.900461538 6.10641371,0.900461538 L8.25050355,0.900461538 L8.25050355,0.900461538 Z" id="Fill-9" fill="#FFFFFF" sketch:type="MSShapeGroup" mask="url(#mask-2)"></path>
                    </g>
                    <path d="M63.3556761,14.0033077 C64.2518369,14.0033077 64.3690165,13.611 64.3690165,12.4343077 L64.3690165,7.84430769 C64.3690165,6.66738462 64.2518369,6.27484615 63.3556761,6.27484615 L61.991026,6.27484615 L61.991026,14.0033077 L63.3556761,14.0033077 L63.3556761,14.0033077 Z M56.5335721,1.09661538 L64.4467541,1.09661538 C68.7349338,1.09661538 69.8266998,2.46969231 69.8266998,7.17715385 L69.8266998,13.0617692 C69.8266998,17.7694615 68.7349338,19.182 64.4467541,19.182 L61.991026,19.182 L61.991026,28.5579231 L56.5335721,28.5579231 L56.5335721,1.09661538 L56.5335721,1.09661538 Z" id="Fill-11" fill="#38C992" sketch:type="MSShapeGroup"></path>
                    <path d="M62.6789693,6.96715385 L63.3556761,6.96715385 C63.5038132,6.96715385 63.5804043,6.981 63.6150307,6.99046154 C63.6473641,7.074 63.6810733,7.29369231 63.6810733,7.84430769 L63.6810733,12.4343077 C63.6810733,12.9844615 63.6475934,13.2041538 63.6150307,13.2879231 C63.5804043,13.2971538 63.5038132,13.311 63.3556761,13.311 L62.6789693,13.311 L62.6789693,6.96715385 L62.6789693,6.96715385 Z M64.4467541,0.404307692 L55.8456288,0.404307692 L55.8456288,29.2502308 L62.6789693,29.2502308 L62.6789693,19.8743077 L64.4467541,19.8743077 C66.9001891,19.8743077 68.3412009,19.4153077 69.2651087,18.3399231 C70.1525556,17.307 70.514643,15.7779231 70.514643,13.0617692 L70.514643,7.17715385 C70.514643,4.46423077 70.1518676,2.94 69.2628156,1.91607692 C68.3428061,0.856384615 66.9024823,0.404307692 64.4467541,0.404307692 L64.4467541,0.404307692 Z M61.991026,14.0033077 L63.3556761,14.0033077 C64.2518369,14.0033077 64.3690165,13.611 64.3690165,12.4343077 L64.3690165,7.84430769 C64.3690165,6.66738462 64.2518369,6.27484615 63.3556761,6.27484615 L61.991026,6.27484615 L61.991026,14.0033077 L61.991026,14.0033077 Z M64.4467541,1.09661538 C68.7349338,1.09661538 69.8266998,2.46969231 69.8266998,7.17715385 L69.8266998,13.0617692 C69.8266998,17.7694615 68.7349338,19.182 64.4467541,19.182 L61.991026,19.182 L61.991026,28.5579231 L56.5335721,28.5579231 L56.5335721,1.09661538 L64.4467541,1.09661538 L64.4467541,1.09661538 Z" id="Fill-12" fill="#FFFFFF" sketch:type="MSShapeGroup"></path>
                    <path d="M72.9478983,1.09661538 L78.4053522,1.09661538 L78.4053522,23.3794615 L82.4208771,23.3794615 L82.4208771,28.5579231 L72.9478983,28.5579231 L72.9478983,1.09661538" id="Fill-13" fill="#38C992" sketch:type="MSShapeGroup"></path>
                    <path d="M79.0932955,0.404307692 L72.2599551,0.404307692 L72.2599551,29.2502308 L83.1088203,29.2502308 L83.1088203,22.6871538 L79.0932955,22.6871538 L79.0932955,0.404307692 L79.0932955,0.404307692 Z M78.4053522,1.09661538 L78.4053522,23.3794615 L82.4208771,23.3794615 L82.4208771,28.5579231 L72.9478983,28.5579231 L72.9478983,1.09661538 L78.4053522,1.09661538 L78.4053522,1.09661538 Z" id="Fill-14" fill="#FFFFFF" sketch:type="MSShapeGroup"></path>
                    <path d="M90.8009433,11.6889231 L94.5431253,11.6889231 L94.5431253,16.8669231 L90.8009433,16.8669231 L90.8009433,23.3794615 L95.5569243,23.3794615 L95.5569243,28.5579231 L85.34326,28.5579231 L85.34326,1.09661538 L95.5569243,1.09661538 L95.5569243,6.27484615 L90.8009433,6.27484615 L90.8009433,11.6889231" id="Fill-15" fill="#38C992" sketch:type="MSShapeGroup"></path>
                    <path d="M96.2448676,0.404307692 L84.6553168,0.404307692 L84.6553168,29.2502308 L96.2448676,29.2502308 L96.2448676,22.6871538 L91.4888865,22.6871538 L91.4888865,17.5592308 L95.2310686,17.5592308 L95.2310686,10.9966154 L91.4888865,10.9966154 L91.4888865,6.96715385 L96.2448676,6.96715385 L96.2448676,0.404307692 L96.2448676,0.404307692 Z M95.5569243,1.09661538 L95.5569243,6.27484615 L90.8009433,6.27484615 L90.8009433,11.6889231 L94.5431253,11.6889231 L94.5431253,16.8669231 L90.8009433,16.8669231 L90.8009433,23.3794615 L95.5569243,23.3794615 L95.5569243,28.5579231 L85.34326,28.5579231 L85.34326,1.09661538 L95.5569243,1.09661538 L95.5569243,1.09661538 Z" id="Fill-16" fill="#FFFFFF" sketch:type="MSShapeGroup"></path>
                    <path d="M23.3735603,20.1233077 L22.3400402,20.1233077 C22.7835343,14.6561538 23.1208558,10.4642308 23.3545272,6.28476923 C23.58774,10.4642308 23.9252908,14.6561538 24.3687849,20.1233077 L23.3735603,20.1233077 L23.3735603,20.1233077 Z M27.2056336,1.09661538 L19.5034208,1.09661538 L16.1120898,28.5579231 L21.4824043,28.5579231 L21.8722388,24.9879231 L24.8365863,24.9879231 L25.2264208,28.5579231 L30.5969645,28.5579231 L27.2056336,1.09661538 L27.2056336,1.09661538 Z" id="Fill-17" fill="#38C992" sketch:type="MSShapeGroup"></path>
                    <path d="M23.0864586,19.431 C23.1791017,18.2886923 23.2685343,17.1805385 23.3545272,16.1000769 C23.4402908,17.1805385 23.5299527,18.2884615 23.6225957,19.431 L23.0864586,19.431 L23.0864586,19.431 Z M27.8133168,0.404307692 L18.8955083,0.404307692 L15.3333381,29.2502308 L22.0988014,29.2502308 L22.4886359,25.6802308 L24.2201891,25.6802308 L24.6097943,29.2502308 L31.3757163,29.2502308 L27.8133168,0.404307692 L27.8133168,0.404307692 Z M22.3400402,20.1233077 L24.3690142,20.1233077 C23.9252908,14.6561538 23.58774,10.4642308 23.3545272,6.28476923 C23.1208558,10.4642308 22.7835343,14.6561538 22.3400402,20.1233077 L22.3400402,20.1233077 Z M27.2056336,1.09661538 L30.5969645,28.5579231 L25.2264208,28.5579231 L24.8365863,24.9879231 L21.8722388,24.9879231 L21.4824043,28.5579231 L16.1120898,28.5579231 L19.5034208,1.09661538 L27.2056336,1.09661538 L27.2056336,1.09661538 Z" id="Fill-18" fill="#FFFFFF" sketch:type="MSShapeGroup"></path>
                    <path d="M38.7568889,28.5576923 L38.7568889,12.3011538 L41.1685887,28.5579231 L45.3620615,28.5579231 L47.7739905,12.3011538 L47.7739905,28.5576923 L47.7792648,28.5576923 L47.7792648,28.5579231 L52.9938747,28.5579231 L52.9938747,1.09661538 L44.9334728,1.09661538 L43.6080355,11.7281538 C43.4404066,12.9761538 43.3594586,13.3188462 43.2652104,14.4124615 C43.1711915,13.3188462 43.0900142,12.9761538 42.9226147,11.7281538 L41.5971773,1.09661538 L33.7665485,1.09661538 L33.7665485,28.5579231 L38.7568889,28.5576923" id="Fill-19" fill="#38C992" sketch:type="MSShapeGroup"></path>
                    <path d="M53.681818,0.404307692 L44.3264775,0.404307692 L43.2652104,8.91576923 L42.2044019,0.404307692 L33.0786052,0.404307692 L33.0786052,29.2502308 L33.7665485,29.2502308 L38.7568889,29.25 L39.4448322,29.2497692 L39.4448322,21.6267692 L40.5758109,29.2502308 L45.9550686,29.2502308 L47.0860473,21.6265385 L47.0860473,29.25 L47.0913215,29.25 L47.7792648,29.2502308 L53.681818,29.2502308 L53.681818,0.404307692 L53.681818,0.404307692 Z M52.9938747,1.09661538 L52.9938747,28.5579231 L47.7792648,28.5579231 L47.7792648,28.5576923 L47.7739905,28.5576923 L47.7739905,12.3011538 L45.3620615,28.5579231 L41.1685887,28.5579231 L38.7568889,12.3011538 L38.7568889,28.5576923 L33.7665485,28.5579231 L33.7665485,1.09661538 L41.5971773,1.09661538 L42.9226147,11.7281538 C43.0900142,12.9761538 43.1711915,13.3188462 43.2652104,14.4124615 C43.3594586,13.3188462 43.4406359,12.9761538 43.6080355,11.7281538 L44.9334728,1.09661538 L52.9938747,1.09661538 L52.9938747,1.09661538 Z" id="Fill-20" fill="#FFFFFF" sketch:type="MSShapeGroup"></path>
                </g>
            </g>
        </g>
    </g>
</svg>